HIERARCHY
ROOT root
{
	OFFSET 0.000000 0.000000 0.000000
	CHANNELS 6 Xposition Yposition Zposition Zrotation Yrotation Xrotation
	JOINT lhip
	{
		OFFSET 0.058581 -0.082280 -0.017664
		CHANNELS 3 Zrotation Yrotation Xrotation
		JOINT lknee
		{
			OFFSET 0.043451 -0.386469 0.008037
			CHANNELS 3 Zrotation Yrotation Xrotation
			JOINT lankle
			{
				OFFSET -0.014790 -0.426874 -0.037428
				CHANNELS 3 Zrotation Yrotation Xrotation
				JOINT ltoe
				{
					OFFSET 0.041054 -0.060286 0.122042
					CHANNELS 3 Zrotation Yrotation Xrotation
					End Site
					{
						OFFSET 0.000000 0.000000 0.000000
					}
				}
			}
		}
	}
	JOINT rhip
	{
		OFFSET -0.060310 -0.090513 -0.013543
		CHANNELS 3 Zrotation Yrotation Xrotation
		JOINT rknee
		{
			OFFSET -0.043257 -0.383688 -0.004843
			CHANNELS 3 Zrotation Yrotation Xrotation
			JOINT rankle
			{
				OFFSET 0.019056 -0.420046 -0.034562
				CHANNELS 3 Zrotation Yrotation Xrotation
				JOINT rtoe
				{
					OFFSET -0.034840 -0.062106 0.130323
					CHANNELS 3 Zrotation Yrotation Xrotation
					End Site
					{
						OFFSET 0.000000 0.000000 0.000000
					}
				}
			}
		}
	}
	JOINT lowerback
	{
		OFFSET 0.004439 0.124404 -0.038385
		CHANNELS 3 Zrotation Yrotation Xrotation
		JOINT upperback
		{
			OFFSET 0.004488 0.137956 0.026820
			CHANNELS 3 Zrotation Yrotation Xrotation
			JOINT chest
			{
				OFFSET -0.002265 0.056032 0.002855
				CHANNELS 3 Zrotation Yrotation Xrotation
				JOINT lowerneck
				{
					OFFSET -0.013390 0.211636 -0.033468
					CHANNELS 3 Zrotation Yrotation Xrotation
					JOINT upperneck
					{
						OFFSET 0.010113 0.088937 0.050410
						CHANNELS 3 Zrotation Yrotation Xrotation
						End Site
						{
							OFFSET 0.000000 0.000000 0.000000
						}
					}
				}
				JOINT lclavicle
				{
					OFFSET 0.071702 0.114000 -0.018898
					CHANNELS 3 Zrotation Yrotation Xrotation
					JOINT lshoulder
					{
						OFFSET 0.122921 0.045205 -0.019046
						CHANNELS 3 Zrotation Yrotation Xrotation
						JOINT lelbow
						{
							OFFSET 0.255332 -0.015649 -0.022946
							CHANNELS 3 Zrotation Yrotation Xrotation
							JOINT lwrist
							{
								OFFSET 0.265709 0.012698 -0.007375
								CHANNELS 3 Zrotation Yrotation Xrotation
								End Site
								{
									OFFSET 0.000000 0.000000 0.000000
								}
							}
						}
					}
				}
				JOINT rclavicle
				{
					OFFSET -0.082954 0.112472 -0.023707
					CHANNELS 3 Zrotation Yrotation Xrotation
					JOINT rshoulder
					{
						OFFSET -0.113228 0.046853 -0.008472
						CHANNELS 3 Zrotation Yrotation Xrotation
						JOINT relbow
						{
							OFFSET -0.260127 -0.014369 -0.031269
							CHANNELS 3 Zrotation Yrotation Xrotation
							JOINT rwrist
							{
								OFFSET -0.269108 0.006794 -0.006027
								CHANNELS 3 Zrotation Yrotation Xrotation
								End Site
								{
									OFFSET 0.000000 0.000000 0.000000
								}
							}
						}
					}
				}
			}
		}
	}
}
MOTION
Frames: 14
Frame Time: 0.033333
0.779922 -1.378669 0.868210 -157.517335 1.930735 98.772582 10.141168 6.211817 22.157854 -7.162187 -10.745686 12.050004 1.637165 -0.106570 -25.058780 0.000000 -0.000000 0.000000 -4.959986 -5.534352 -47.805324 1.323567 -19.662936 78.341404 -4.331152 -2.032406 -22.354598 0.000000 -0.000000 0.000000 -2.413249 -7.233258 12.195861 7.463325 -2.948541 9.963270 3.823633 -3.922610 -2.569790 0.316694 17.538709 -2.363856 -7.537595 11.809747 -1.974127 -20.254956 -8.017102 0.121763 -71.909469 -14.903587 15.736164 5.626728 -64.319959 6.834593 7.553008 -1.506674 -19.984150 21.252494 5.758898 1.705442 55.634808 17.990133 17.443066 -151.360387 66.945163 -124.387061 3.315286 8.946280 -3.429266 
0.765460 -1.327837 0.864528 -158.589390 1.530100 100.840577 8.727459 5.619832 18.703854 -7.170208 -9.671886 20.320949 -2.551299 -0.687328 -17.941547 0.000000 -0.000000 0.000000 -4.298843 -5.553468 -45.198216 1.816739 -19.796136 77.793480 -3.711726 -0.883993 -23.140839 0.000000 -0.000000 0.000000 -0.332516 -6.998873 11.862663 8.170966 -3.115359 10.897274 4.564426 -3.275078 -2.673421 -0.068119 18.748356 -2.802358 -10.321468 12.510775 -1.575437 -20.823469 -8.497589 1.408100 -70.251491 -10.036272 14.016470 1.160847 -58.363656 16.002324 6.577613 -3.912610 -15.211593 22.498888 10.013639 3.166388 48.892619 22.509812 14.495423 -146.560272 74.824059 -118.038946 2.759978 10.052433 1.858649 
0.751942 -1.277873 0.859418 -161.042852 0.109944 103.225598 3.698900 2.725391 9.726120 -7.331751 -7.144055 36.055150 -2.726882 0.917160 -9.579406 0.000000 -0.000000 0.000000 -3.877308 -4.234821 -40.904974 4.163208 -16.851370 73.000948 -5.869316 -4.492076 -30.584528 0.000000 -0.000000 0.000000 1.490079 -4.671408 11.973038 7.607292 -2.575154 11.019053 4.292629 -2.399470 -1.812861 -0.777737 18.860374 -5.748674 -11.863647 12.497036 -1.619974 -20.936300 -8.462144 2.475078 -68.298315 -7.211455 12.267649 -1.579400 -48.876177 19.830455 7.416014 -5.064786 -10.625989 23.268793 13.095226 4.468392 44.984976 26.708668 11.118101 -75.759705 79.383179 -47.998887 -0.439785 12.592437 8.300440 
0.736793 -1.215818 0.856888 -166.921472 1.020854 104.203076 0.623477 -0.226060 -4.714284 -6.989304 1.197459 61.857747 -0.424823 4.674677 -7.038950 0.000000 -0.000000 0.000000 -2.150866 -0.353584 -34.858354 5.743632 -13.135267 68.973705 -7.964702 -6.986316 -35.414238 0.000000 -0.000000 0.000000 5.164567 -1.034065 15.724198 5.830758 0.755318 12.484093 2.667704 0.801854 -1.560319 -2.779680 16.378022 -9.060504 -11.562735 11.715896 -7.130896 -22.086899 -10.471989 2.695843 -63.799660 -1.581077 11.502417 -3.264834 -38.964356 26.656044 8.361386 -5.515695 -3.231010 24.634328 19.558825 6.266309 35.598110 31.086536 0.900733 -27.354883 54.214702 -3.486468 -0.071022 10.645624 11.744738 
0.728270 -1.175721 0.856711 -170.510152 1.774834 103.574108 0.892125 -1.011893 -13.413190 -5.956621 6.133254 73.966829 1.954287 7.034659 -8.951698 0.000000 -0.000000 0.000000 -1.053334 0.474853 -29.870825 6.927338 -10.086341 66.121652 -7.890760 -7.580008 -36.376697 0.000000 -0.000000 0.000000 6.082493 1.263642 19.644382 4.831960 2.857832 13.076192 2.130583 2.850320 -1.118232 -2.574340 14.462251 -12.250124 -11.164436 11.205306 -8.626167 -23.160012 -10.880313 2.117260 -60.806070 1.846496 11.653229 -3.368495 -33.934302 29.484111 9.232738 -5.870384 0.736098 24.587109 24.241842 6.116088 27.234691 34.444390 -6.674199 -19.977886 31.542647 -2.131131 2.011241 7.236319 13.356000 
0.718172 -1.117791 0.858647 -174.614370 0.880050 104.010387 0.905568 -1.322830 -27.382232 -4.396933 10.885661 84.430359 4.568430 8.126515 -11.218069 0.000000 -0.000000 0.000000 -1.361599 -0.776514 -23.755736 9.121273 -4.009723 61.159431 -7.700387 -8.707509 -37.626884 0.000000 -0.000000 0.000000 4.548717 6.174421 22.492001 3.326974 4.728936 13.563297 1.919639 4.765215 -0.416939 -1.291280 12.614695 -15.027068 -9.087555 9.437079 -9.940915 -22.124852 -9.944470 1.452814 -56.804400 6.883337 11.997857 -4.739796 -32.084092 32.040828 12.323193 -6.373176 1.749697 22.331211 27.378634 4.929049 19.376413 35.907279 -18.718447 -15.993095 6.622481 -24.528869 2.251139 2.511650 -2.483498 
0.706600 -1.048930 0.865198 -175.058746 -0.288224 105.237172 1.885754 -2.218364 -41.385019 -3.917505 13.897419 86.019828 5.082011 7.737023 -14.495506 0.000000 -0.000000 0.000000 -2.658295 -2.904315 -16.614615 9.314151 -0.766760 54.294415 -5.761910 -6.659627 -36.927254 0.000000 -0.000000 0.000000 2.625110 11.043898 23.341821 3.083513 3.975095 13.484197 2.053602 5.066325 0.424621 -0.439350 12.117762 -14.681292 -7.381659 7.543827 -12.172027 -21.386268 -7.879694 2.365850 -52.284163 12.146459 11.101424 -6.992607 -34.570511 32.507209 13.285120 -6.690594 0.745402 22.753244 24.735870 3.651494 18.975084 32.201325 -23.267914 -17.704567 7.735991 -45.556239 5.385512 4.815349 -27.889783 
0.693299 -0.969285 0.875965 -172.973916 -1.220609 106.637101 4.385581 -4.330896 -52.067939 -4.342808 17.987126 78.541517 6.113076 7.736086 -15.993912 0.000000 -0.000000 0.000000 -3.686109 -4.210678 -8.611636 10.120516 2.418012 45.773626 -2.233727 -4.543359 -30.399195 0.000000 -0.000000 0.000000 -0.081524 14.661802 22.347509 4.438175 0.808261 14.245108 3.086112 4.234363 1.664335 -1.208392 13.106839 -14.419149 -6.160072 5.504061 -12.838598 -20.440863 -6.317142 4.039814 -51.740766 14.667295 10.310564 -8.440809 -32.657152 33.154624 13.109895 -6.084975 -0.429966 24.981978 20.514949 4.209534 19.539906 28.914920 -18.683050 -22.492976 17.484255 -37.255862 2.455642 4.882502 -20.184729 
0.680058 -0.882947 0.889885 -171.034482 -1.450194 107.998769 5.364695 -4.313177 -58.132481 -5.668478 20.273292 64.938673 6.442640 5.765085 -17.877909 0.000000 -0.000000 0.000000 -3.496274 -4.025043 -2.112615 8.790555 5.322645 38.779634 4.314897 -0.063985 -16.465695 0.000000 -0.000000 0.000000 -2.833920 16.548664 23.368714 4.817664 -2.057202 13.820288 4.114441 3.196788 0.806971 -2.082751 13.181573 -11.793292 -5.006672 7.006231 -14.743629 -21.903924 -5.050438 5.721940 -51.764406 17.088522 9.346810 -8.062380 -30.461203 30.339962 12.782445 -6.394046 0.510866 26.690801 16.809823 3.481231 24.091608 25.671283 -12.350523 -29.738868 29.006948 -41.814324 -2.430737 7.091787 -24.265402 
0.665491 -0.768836 0.899125 -168.871120 -0.338129 107.915215 3.949216 -2.329255 -57.762078 -7.339169 21.165534 49.634062 4.512896 1.588751 -17.946222 0.000000 -0.000000 0.000000 0.314952 -2.054807 5.964394 3.790614 9.071491 32.367048 10.770950 3.670348 -1.460043 0.000000 -0.000000 0.000000 -5.399176 17.290029 25.201354 4.835838 -5.243098 14.156139 4.947705 1.719896 -0.544623 -2.542849 15.294284 -8.719660 -3.982779 9.993269 -16.820961 -21.921723 -4.336566 7.228669 -56.634502 18.837152 5.220699 -5.559719 -29.473993 25.094588 11.615340 -5.817278 -1.173136 25.539454 12.595147 0.931269 37.840636 23.290490 -4.906140 -47.491965 40.244289 -55.921362 -8.434776 9.876845 -37.023943 
0.649855 -0.677210 0.892658 -165.933962 -0.022773 108.150714 1.936644 -3.588009 -54.458179 -7.648057 22.693669 47.561796 10.097682 4.985578 -17.619675 0.000000 -0.000000 0.000000 2.967905 -0.151180 5.717178 5.629102 6.326394 40.841007 8.320823 2.032989 -2.644335 0.000000 -0.000000 0.000000 -7.433798 15.275197 24.583684 5.110306 -7.410759 14.087886 4.602348 -0.100454 -0.218469 -1.974299 16.791101 -7.242127 -4.439727 13.035366 -17.597144 -23.143488 -2.840442 7.285419 -58.997724 18.191863 3.160723 -2.454897 -30.475672 19.911630 10.735100 -3.763992 -3.597279 25.825931 8.202826 -0.782147 48.050090 21.037941 0.074264 -65.518739 43.488929 -69.389881 -5.075741 8.055825 -41.634123 
0.632267 -0.586688 0.881537 -162.916039 0.864096 108.018275 0.165285 -5.501389 -48.869722 -7.069775 16.764637 52.992744 12.617806 8.148546 -28.418270 0.000000 -0.000000 0.000000 4.532536 0.638819 0.520916 6.741674 -0.694416 56.121696 8.500028 0.148347 -3.528539 0.000000 -0.000000 0.000000 -7.743493 11.839161 25.055692 4.631771 -8.534296 13.371986 4.122242 -1.492690 0.339379 -1.065305 16.946113 -7.826435 -5.202809 15.515458 -19.452763 -25.330331 -2.997238 6.391708 -60.070152 15.597620 1.587757 1.804971 -30.936057 12.434331 10.338015 -3.163333 -4.577815 25.437316 5.590936 -1.661425 52.930756 15.677617 2.454519 -77.541984 46.228549 -78.892722 -2.800834 8.891612 -45.498059 
0.614719 -0.498697 0.875323 -161.850961 0.668652 107.897822 0.095055 -6.911227 -42.980611 -8.960223 14.469696 55.217459 12.575253 11.304069 -32.818085 0.000000 -0.000000 0.000000 3.107517 1.991638 -10.517640 5.778937 -5.927463 74.853656 6.179652 -2.183632 -5.574175 0.000000 -0.000000 0.000000 -9.887439 9.597991 25.611630 4.439213 -8.788921 12.713109 3.729913 -2.530087 0.841243 0.414641 18.705021 -10.019773 -5.006265 15.728033 -20.907060 -27.305071 -4.052076 4.320444 -58.359248 10.508365 2.628616 5.153637 -31.432680 6.527273 11.256852 -2.315234 -4.349165 26.627355 4.570178 -1.870173 52.438542 12.706597 4.419620 -83.483163 45.422324 -83.741004 -5.714704 6.807417 -48.367703 
0.593864 -0.411620 0.876895 -161.048529 0.979499 106.905018 -1.239694 -4.743064 -34.200167 -10.052418 10.110180 54.300363 11.297634 10.549396 -34.235313 0.000000 -0.000000 0.000000 1.097770 3.374193 -23.389287 4.386107 -7.954273 88.902078 3.012694 -3.093541 -8.341055 0.000000 -0.000000 0.000000 -10.396664 6.512658 26.934286 3.959565 -7.834455 12.342116 3.324330 -3.288604 0.365117 -0.397928 19.587808 -10.771773 -5.848026 16.111418 -20.136040 -27.658897 -6.723871 2.699610 -57.299425 3.964272 3.096739 9.579566 -32.909822 1.458655 11.053224 -1.932037 -3.947153 25.682330 5.160403 -1.984402 52.434282 11.963039 4.069421 -85.447944 43.582552 -87.022877 -3.072451 7.395401 -54.903643 
